<?xml version="1.0" standalone="no"?><svg xmlns="http://www.w3.org/2000/svg" viewBox="0 0 1440 320"><path fill="#a2d9ff" fill-opacity="1" d="M0,320L15,282.7C30,245,60,171,90,165.3C120,160,150,224,180,250.7C210,277,240,267,270,240C300,213,330,171,360,176C390,181,420,235,450,224C480,213,510,139,540,106.7C570,75,600,85,630,96C660,107,690,117,720,117.3C750,117,780,107,810,128C840,149,870,203,900,213.3C930,224,960,192,990,149.3C1020,107,1050,53,1080,58.7C1110,64,1140,128,1170,144C1200,160,1230,128,1260,117.3C1290,107,1320,117,1350,128C1380,139,1410,149,1425,154.7L1440,160L1440,0L1425,0C1410,0,1380,0,1350,0C1320,0,1290,0,1260,0C1230,0,1200,0,1170,0C1140,0,1110,0,1080,0C1050,0,1020,0,990,0C960,0,930,0,900,0C870,0,840,0,810,0C780,0,750,0,720,0C690,0,660,0,630,0C600,0,570,0,540,0C510,0,480,0,450,0C420,0,390,0,360,0C330,0,300,0,270,0C240,0,210,0,180,0C150,0,120,0,90,0C60,0,30,0,15,0L0,0Z"></path></svg>